<svg xmlns="http://www.w3.org/2000/svg" width="106" height="72" fill="none"><ellipse cx="41.236" cy="67.4" rx="38.815" ry="4.265" fill="#E6E7EE"/><path d="M28.636 54.082h9.053s-1.006 3.772-1.258 6.287c-.207 2.073 0 5.28 0 5.28H30.9s0-2.514-.251-5.029c-.252-2.514-2.012-6.538-2.012-6.538Z" fill="#FFA857"/><path d="M38.191 66.656c0 1.389-2.251 1.508-5.029 1.508-2.777 0-5.532-.12-5.532-1.508 0-1.39 2.012-3.52 5.532-3.52 3.018 0 5.03 2.13 5.03 3.52Z" fill="#734B27"/><path d="M55.63 53.061H45.318s1.509 5.28 1.76 7.796c.208 2.072 0 5.28 0 5.28h5.533s0-2.514.251-5.029c.252-2.515 2.766-8.047 2.766-8.047Z" fill="#FFA857"/><path d="M46.83 66.656c0 1.389 2.251 1.509 5.029 1.509 2.777 0 5.532-.12 5.532-1.51 0-1.388-2.012-3.52-5.532-3.52-3.018 0-5.03 2.132-5.03 3.52Z" fill="#734B27"/><path d="M20.035 22.532s3.663-.646 4.276-2.475c.423-1.263-2.575-6.335-2.575-6.335s-3.766 2.267-6.044 3.774c-1.203.795-6.34 3.65-6.34 3.65l1.623 3.412s1.572-.747 3.218-1.34c1.646-.592 5.842-.686 5.842-.686Z" fill="#FFA857"/><g filter="url(#a)"><path d="M5.026 28.284c.76-.577 1.535-1.2 2.23-1.826l.01.027s.965-.848 1.797-1.205c.822-.351 2.18-.694 2.18-.694l-1.334-3.9s-1.577.663-2.429.236c-.717-.36-1.726-.659-2.256-.803a2.032 2.032 0 0 0-.892-.114c-1.118.116-2.337.353-2.387.617-.129.668.762 1.4 1.99 1.636.182.035.362.057.536.067-.404.163-.815.355-1.224.576-2.802 1.513-3.85 2.101-2.912 4.023.786 1.61 1.889 2.872 4.69 1.36Z" fill="#744B27"/></g><path d="M62.248 22.532s-3.662-.646-4.276-2.475c-.423-1.263 2.575-6.335 2.575-6.335s3.766 2.267 6.044 3.774c1.203.795 6.34 3.65 6.34 3.65l-1.622 3.412s-1.573-.747-3.219-1.34c-1.646-.592-5.842-.686-5.842-.686Z" fill="#FFA857"/><g filter="url(#b)"><path d="M77.258 28.284a35.06 35.06 0 0 1-2.231-1.826l-.01.027s-.965-.848-1.797-1.205c-.822-.351-2.18-.694-2.18-.694l1.335-3.9s1.576.663 2.428.236c.718-.36 1.727-.659 2.256-.803.278-.099.583-.146.892-.114 1.119.116 2.337.353 2.388.617.128.668-.763 1.4-1.99 1.636a4.11 4.11 0 0 1-.537.067c.405.163.815.355 1.225.576 2.802 1.513 3.849 2.101 2.911 4.023-.785 1.61-1.888 2.872-4.69 1.36Z" fill="#744B27"/></g><path d="M69.228 34.2c0 15-12.572 22.12-27.571 22.12-15 0-29.26-7.12-29.26-22.12C12.396 19.202 31.595 0 41.654 0c10.059 0 27.573 19.201 27.573 34.2Z" fill="#FFC563"/><path d="M59.926 36.489c0 10.089-8.457 14.878-18.546 14.878-10.089 0-19.681-4.79-19.681-14.878 0-10.09 12.914-23.005 19.68-23.005S59.926 26.4 59.926 36.49Z" fill="#FEEDD3"/><path d="M41.655 0c3.678 0 8.352 2.568 12.803 6.559-4.472 1.898-9.319 3.295-13.854 3.259-4.51-.036-9.851-.43-14.856-.917C31.23 3.6 37.299 0 41.655 0Z" fill="#EDAD40"/><defs><filter id="a" x="0" y="19.995" width="11.244" height="8.968" filterUnits="userSpaceOnUse" color-interpolation-filters="sRGB"><feFlood flood-opacity="0" result="BackgroundImageFix"/><feBlend in="SourceGraphic" in2="BackgroundImageFix" result="shape"/><feColorMatrix in="SourceAlpha" values="0 0 0 0 0 0 0 0 0 0 0 0 0 0 0 0 0 0 127 0" result="hardAlpha"/><feOffset/><feGaussianBlur stdDeviation="1.722"/><feComposite in2="hardAlpha" operator="arithmetic" k2="-1" k3="1"/><feColorMatrix values="0 0 0 0 0.396908 0 0 0 0 0.214695 0 0 0 0 0.0845431 0 0 0 0.45 0"/><feBlend in2="shape" result="effect1_innerShadow_100_2963"/></filter><filter id="b" x="71.04" y="19.995" width="11.244" height="8.968" filterUnits="userSpaceOnUse" color-interpolation-filters="sRGB"><feFlood flood-opacity="0" result="BackgroundImageFix"/><feBlend in="SourceGraphic" in2="BackgroundImageFix" result="shape"/><feColorMatrix in="SourceAlpha" values="0 0 0 0 0 0 0 0 0 0 0 0 0 0 0 0 0 0 127 0" result="hardAlpha"/><feOffset/><feGaussianBlur stdDeviation="1.722"/><feComposite in2="hardAlpha" operator="arithmetic" k2="-1" k3="1"/><feColorMatrix values="0 0 0 0 0.396908 0 0 0 0 0.214695 0 0 0 0 0.0845431 0 0 0 0.45 0"/><feBlend in2="shape" result="effect1_innerShadow_100_2963"/></filter></defs></svg>