<svg width="64" height="64" fill="none" xmlns="http://www.w3.org/2000/svg"><mask id="a" style="mask-type:alpha" maskUnits="userSpaceOnUse" x="0" y="0" width="64" height="64"><path fill="#D9D9D9" d="M0 0h64v64H0z"/></mask><g mask="url(#a)"><path d="M32 0c15.316 0 27.733 12.417 27.733 27.733 0 1.1-.067 2.186-.191 3.252a7.467 7.467 0 0 0-7.712 4.411 7.467 7.467 0 0 0-8.512 4.218 7.47 7.47 0 0 0-5.877 8.583 7.46 7.46 0 0 0-3.243 7.183 28.1 28.1 0 0 1-2.198.087c-15.317 0-27.734-12.417-27.734-27.734C4.266 12.417 16.683 0 32 0Z" fill="#E4A664"/><mask id="b" style="mask-type:alpha" maskUnits="userSpaceOnUse" x="4" y="0" width="56" height="56"><path d="M32 0c15.316 0 27.733 12.417 27.733 27.733 0 1.1-.067 2.186-.191 3.252a7.467 7.467 0 0 0-7.712 4.411 7.467 7.467 0 0 0-8.512 4.218 7.47 7.47 0 0 0-5.877 8.583 7.46 7.46 0 0 0-3.243 7.183 28.1 28.1 0 0 1-2.198.087c-15.317 0-27.734-12.417-27.734-27.734C4.266 12.417 16.683 0 32 0Z" fill="#E4A664"/></mask><g mask="url(#b)" fill="#7E4528"><circle cx="14.933" cy="11.733" r="5.333"/><circle cx="35.2" cy="32" r="7.467"/><circle cx="46.933" cy="14.933" r="5.333"/><circle cx="10.666" cy="23.467" r="3.2"/><circle cx="19.2" cy="35.2" r="5.333"/><circle cx="28.8" cy="17.067" r="3.2"/><circle cx="22.399" cy="51.2" r="4.267"/><circle cx="48.533" cy="26.134" r="2.667"/><circle cx="39.467" cy="4.267" r="4.267"/></g><circle cx="58.133" cy="35.733" r="1.6" fill="#E4A664"/><circle cx="49.067" cy="61.867" r="1.067" fill="#E4A664"/><circle cx="41.067" cy="57.067" r="2.667" fill="#E4A664"/><circle cx="48.533" cy="53.867" r="1.6" fill="#7E4528"/></g></svg>