<svg width="160" height="112" fill="none" xmlns="http://www.w3.org/2000/svg"><g clip-path="url(#a)"><mask id="b" style="mask-type:alpha" maskUnits="userSpaceOnUse" x="-18" y="1" width="193" height="113"><path fill="#fff" d="M-17.6 1.6h192v112h-192z"/></mask><g mask="url(#b)"><path d="M21.265 24.825H160" stroke="url(#c)" stroke-width="1.149"/><path d="M21.264 46.462H160" stroke="url(#d)" stroke-width="1.149"/><path d="M21.264 68.1H160" stroke="url(#e)" stroke-width="1.149"/><path d="M21.264 89.737H160" stroke="url(#f)" stroke-width="1.149"/><path d="M123.089-12.086V126.65" stroke="url(#g)" stroke-width="1.149"/><path d="M101.451-12.086V126.65" stroke="url(#h)" stroke-width="1.149"/><path d="M79.813-12.086V126.65" stroke="url(#i)" stroke-width="1.149"/><path d="M58.175-12.086V126.65" stroke="url(#j)" stroke-width="1.149"/><path d="M53.333 62.203s3.095-17.314 16.094-17.314c12.998 0 14.236 28.444 25.378 28.444 11.141 0 7.77-34.1 22.006-40.42C131.048 26.593 136 55.173 136 55.173" stroke="#D2D9DF" stroke-width="1.967" stroke-linecap="round"/><path d="M98.666 73.333a4 4 0 1 1-8 0 4 4 0 0 1 8 0ZM57.907 85.58 28.42 87.383l-2.765-40.595 14.727-14.78 15.813 13.317 1.712 40.257Zm-15.26-45.653a2.797 2.797 0 1 0-3.693 4.2 2.797 2.797 0 0 0 3.694-4.2Z" fill="#B5BDC4"/><path d="m59.415 38.088 16.141 41.76-30.393 12.398-17.37-41.74L38.03 29.705l21.386 8.383Zm-16.239-1.463a3.108 3.108 0 1 0-1.87 5.929 3.108 3.108 0 0 0 1.87-5.929Z" fill="#D2D9DF"/><path d="M19.452 14.77c2.093-.298 4.54.28 6.998 1.506 2.469 1.23 5.008 3.143 7.31 5.602 4.601 4.917 8.304 12.08 8.563 20.509l.01.333-1.109.034-.333.01-.01-.333c-.247-8.026-3.776-14.866-8.176-19.567-2.199-2.35-4.603-4.152-6.9-5.297-2.307-1.15-4.45-1.61-6.15-1.367-2.032.29-3.523 1.657-4.39 3.785-.872 2.145-1.082 5.02-.507 8.126 1.148 6.206 4.949 12.642 12.74 16.09l.485.214-.403.344-.644.55-.16.136-.191-.085c-8.296-3.67-11.993-10.358-13.214-16.955-.61-3.296-.447-6.497.557-8.964 1.01-2.481 2.864-4.291 5.524-4.67Z" fill="#D6E1EA"/><path d="m57.075 74.17-1.781.731-1.122-2.42c-3.396 1.074-6.217.364-8.461-2.13l2.532-1.82c1.363 1.631 2.97 2.15 4.819 1.556l-2.396-5.168c-2.576.426-4.406.375-5.487-.152-1.082-.526-1.885-1.356-2.41-2.49-1.363-2.94-.282-5.404 3.245-7.393L45.14 53l1.78-.731.873 1.884c2.897-.775 5.245-.146 7.046 1.886l-2.417 1.663c-1.08-1.155-2.25-1.536-3.513-1.142l2.117 4.566c1.95-.22 3.284-.322 4.004-.306.719.016 1.494.305 2.325.867.83.562 1.483 1.353 1.956 2.374.671 1.448.732 2.856.184 4.223-.55 1.368-1.73 2.523-3.544 3.465l1.122 2.42ZM47.13 57.292c-.76.323-1.313.775-1.655 1.357-.343.582-.346 1.235-.01 1.96.566 1.22 1.8 1.58 3.703 1.078l-2.038-4.395Zm7.712 12.063c.823-.348 1.404-.872 1.744-1.573.34-.7.334-1.43-.018-2.189-.59-1.273-1.94-1.69-4.049-1.249l2.323 5.011Z" fill="#fff"/></g></g><defs><linearGradient id="c" x1="21.265" y1="25.325" x2="160" y2="25.325" gradientUnits="userSpaceOnUse"><stop stop-color="#DDE5EF" stop-opacity="0"/><stop offset=".438" stop-color="#DDE5EF"/><stop offset="1" stop-color="#DDE5EF" stop-opacity="0"/></linearGradient><linearGradient id="d" x1="21.264" y1="46.962" x2="159.999" y2="46.962" gradientUnits="userSpaceOnUse"><stop stop-color="#DDE5EF" stop-opacity="0"/><stop offset=".539" stop-color="#DDE5EF"/><stop offset="1" stop-color="#DDE5EF" stop-opacity="0"/></linearGradient><linearGradient id="e" x1="21.264" y1="68.599" x2="159.999" y2="68.599" gradientUnits="userSpaceOnUse"><stop stop-color="#DDE5EF" stop-opacity="0"/><stop offset=".438" stop-color="#DDE5EF"/><stop offset="1" stop-color="#DDE5EF" stop-opacity="0"/></linearGradient><linearGradient id="f" x1="21.264" y1="90.237" x2="159.999" y2="90.237" gradientUnits="userSpaceOnUse"><stop stop-color="#DDE5EF" stop-opacity="0"/><stop offset=".438" stop-color="#DDE5EF"/><stop offset="1" stop-color="#DDE5EF" stop-opacity="0"/></linearGradient><linearGradient id="g" x1="122.589" y1="-12.086" x2="122.589" y2="126.649" gradientUnits="userSpaceOnUse"><stop stop-color="#DDE5EF" stop-opacity="0"/><stop offset=".438" stop-color="#DDE5EF"/><stop offset="1" stop-color="#DDE5EF" stop-opacity="0"/></linearGradient><linearGradient id="h" x1="100.951" y1="-12.086" x2="100.951" y2="126.649" gradientUnits="userSpaceOnUse"><stop stop-color="#DDE5EF" stop-opacity="0"/><stop offset=".438" stop-color="#DDE5EF"/><stop offset="1" stop-color="#DDE5EF" stop-opacity="0"/></linearGradient><linearGradient id="i" x1="79.313" y1="-12.086" x2="79.313" y2="126.649" gradientUnits="userSpaceOnUse"><stop stop-color="#DDE5EF" stop-opacity="0"/><stop offset=".438" stop-color="#DDE5EF"/><stop offset="1" stop-color="#DDE5EF" stop-opacity="0"/></linearGradient><linearGradient id="j" x1="57.675" y1="-12.086" x2="57.675" y2="126.649" gradientUnits="userSpaceOnUse"><stop stop-color="#DDE5EF" stop-opacity="0"/><stop offset=".438" stop-color="#DDE5EF"/><stop offset="1" stop-color="#DDE5EF" stop-opacity="0"/></linearGradient><clipPath id="a"><path fill="#fff" d="M0 0h160v112H0z"/></clipPath></defs></svg>